<svg xmlns:dc="http://purl.org/dc/elements/1.1/" xmlns:cc="http://creativecommons.org/ns#" xmlns:rdf="http://www.w3.org/1999/02/22-rdf-syntax-ns#" xmlns:svg="http://www.w3.org/2000/svg" xmlns="http://www.w3.org/2000/svg" xmlns:xlink="http://www.w3.org/1999/xlink" id="svg121339" viewBox="0 0 1024 768" height="768px" width="1024px" version="1.1">
  <metadata id="metadata121345">
    <rdf:rdf>
      <cc:work rdf:about="">
        <dc:format>image/svg+xml</dc:format>
        <dc:type rdf:resource="http://purl.org/dc/dcmitype/StillImage"></dc:type>
      </cc:work>
    </rdf:rdf>
  </metadata>
  <defs id="defs121343"></defs>
  <g id="logo-group">
    <image xlink:href="../nounpreview/1146697.png" id="icon" width="200" height="200" x="412" y="0" style="display: none;"></image>
    <g id="title" style="font-style:normal;font-weight:300;font-size:72px;line-height:1;font-family:'Montserrat Light Alt1';font-variant-ligatures:none;text-align:center;text-anchor:middle" aria-label="RCODI">
      <path id="path121347" style="font-style: normal; font-weight: 300; font-size: 72px; line-height: 1; font-family: &quot;Montserrat Light Alt1&quot;; font-variant-ligatures: none; text-align: center; text-anchor: middle; fill: rgb(29, 29, 29);" d="m 425.64106,-17.64 c 3.744,-1.08 6.696,-2.952 8.712,-5.688 2.016,-2.736 3.096,-6.048 3.096,-10.08 0,-5.256 -1.8,-9.432 -5.4,-12.456 -3.6,-3.024 -8.568,-4.536 -14.904,-4.536 h -18.072 v 3.312 h 18.072 c 5.328,0 9.432,1.224 12.312,3.6 2.808,2.376 4.248,5.76 4.248,10.08 0,4.392 -1.44,7.776 -4.248,10.152 -2.88,2.376 -6.984,3.528 -12.312,3.528 h -18.072 V 0 h 3.672 v -16.488 h 14.4 c 1.44,0 3.096,-0.072 4.896,-0.36 L 434.06506,0 h 4.176 z" transform="translate(0 322.35785983957163) translate(252.0000000000001 -15.27673965451968) scale(2.3023162629865017) translate(-399.07306 50.4)"></path>
      <path id="path121349" style="font-style: normal; font-weight: 300; font-size: 72px; line-height: 1; font-family: &quot;Montserrat Light Alt1&quot;; font-variant-ligatures: none; text-align: center; text-anchor: middle; fill: rgb(29, 29, 29);" d="m 458.88369,-2.952 c 3.96,2.232 8.424,3.312 13.392,3.312 3.6,0 6.912,-0.576 10.008,-1.8 3.096,-1.152 5.76,-2.952 7.92,-5.256 l -2.304,-2.376 c -4.104,4.032 -9.288,6.048 -15.48,6.048 -4.248,0 -8.064,-0.936 -11.52,-2.88 -3.456,-1.872 -6.192,-4.536 -8.136,-7.92 -2.016,-3.384 -2.952,-7.2 -2.952,-11.376 0,-4.176 0.936,-7.92 2.952,-11.304 1.944,-3.384 4.68,-6.048 8.136,-7.992 3.456,-1.872 7.272,-2.88 11.52,-2.88 6.264,0 11.448,2.016 15.48,5.976 l 2.304,-2.376 c -2.16,-2.304 -4.824,-4.032 -7.848,-5.184 -3.096,-1.152 -6.48,-1.8 -10.08,-1.8 -4.968,0 -9.432,1.152 -13.392,3.312 -3.96,2.232 -7.056,5.256 -9.36,9.144 -2.304,3.888 -3.384,8.28 -3.384,13.104 0,4.896 1.08,9.216 3.384,13.104 2.304,3.888 5.4,6.984 9.36,9.144 z" transform="translate(0 322.35785983957163) translate(360.36226769296843 -16.10557350919482) scale(2.3023162629865017) translate(-446.13969 50.76)"></path>
      <path id="path121351" style="font-style: normal; font-weight: 300; font-size: 72px; line-height: 1; font-family: &quot;Montserrat Light Alt1&quot;; font-variant-ligatures: none; text-align: center; text-anchor: middle; fill: rgb(29, 29, 29);" d="m 509.44006,-2.952 c 3.96,2.232 8.424,3.312 13.392,3.312 4.896,0 9.36,-1.08 13.392,-3.312 3.96,-2.16 7.056,-5.256 9.36,-9.144 2.304,-3.888 3.456,-8.208 3.456,-13.104 0,-4.824 -1.152,-9.216 -3.456,-13.104 -2.304,-3.888 -5.4,-6.912 -9.36,-9.144 -4.032,-2.16 -8.496,-3.312 -13.392,-3.312 -4.968,0 -9.432,1.152 -13.392,3.384 -4.032,2.232 -7.128,5.256 -9.432,9.144 -2.304,3.888 -3.384,8.28 -3.384,13.032 0,4.824 1.08,9.144 3.384,13.032 2.304,3.888 5.4,6.984 9.432,9.216 z m 24.84,-2.952 c -3.456,1.944 -7.272,2.88 -11.448,2.88 -4.248,0 -8.064,-0.936 -11.52,-2.88 -3.456,-1.872 -6.12,-4.536 -8.064,-7.92 -2.016,-3.384 -2.952,-7.2 -2.952,-11.376 0,-4.176 0.936,-7.92 2.952,-11.304 1.944,-3.384 4.608,-6.048 8.064,-7.992 3.456,-1.872 7.272,-2.88 11.52,-2.88 4.176,0 7.992,1.008 11.448,2.88 3.384,1.944 6.048,4.608 8.064,7.992 1.944,3.384 2.952,7.128 2.952,11.304 0,4.176 -1.008,7.992 -2.952,11.376 -2.016,3.384 -4.68,6.048 -8.064,7.92 z" transform="translate(0 322.35785983957163) translate(476.5932537705962 -16.10557350919482) scale(2.3023162629865017) translate(-496.62406 50.76)"></path>
      <path id="path121353" style="font-style: normal; font-weight: 300; font-size: 72px; line-height: 1; font-family: &quot;Montserrat Light Alt1&quot;; font-variant-ligatures: none; text-align: center; text-anchor: middle; fill: rgb(29, 29, 29);" d="m 605.12019,-38.16 c -2.304,-3.816 -5.472,-6.768 -9.504,-9 -4.032,-2.16 -8.712,-3.24 -13.896,-3.24 h -19.944 v 3.312 h 19.656 c 4.608,0 8.712,0.936 12.312,2.808 3.528,1.872 6.264,4.464 8.208,7.704 1.872,3.312 2.88,7.128 2.88,11.376 0,4.32 -1.008,8.064 -2.88,11.376 -1.944,3.312 -4.68,5.904 -8.208,7.776 -3.6,1.872 -7.704,2.736 -12.312,2.736 h -15.984 V -25.2 h -3.672 V 0 h 19.944 c 5.184,0 9.864,-1.08 13.896,-3.24 4.032,-2.16 7.2,-5.112 9.504,-8.928 2.232,-3.816 3.384,-8.136 3.384,-13.032 0,-4.824 -1.152,-9.144 -3.384,-12.96 z" transform="translate(0 322.35785983957163) translate(626.594062237807 -15.27673965451968) scale(2.3023162629865017) translate(-561.77619 50.4)"></path>
      <path id="path121355" style="font-style: normal; font-weight: 300; font-size: 72px; line-height: 1; font-family: &quot;Montserrat Light Alt1&quot;; font-variant-ligatures: none; text-align: center; text-anchor: middle; fill: rgb(29, 29, 29);" d="M 621.26056,-50.4 V 0 h 3.672 v -50.4 z" transform="translate(0 322.35785983957163) translate(763.5458946823135 -15.27673965451968) scale(2.3023162629865017) translate(-621.26056 50.4)"></path>
    </g>
    <g id="tagline" style="font-style:normal;font-weight:400;font-size:32px;line-height:1;font-family:Montserrat;font-variant-ligatures:none;text-align:center;text-anchor:middle" aria-label="Research Center for Open Digital Innovation">
      <path id="path121358" style="font-style: normal; font-weight: 400; font-size: 32px; line-height: 1; font-family: Montserrat; font-variant-ligatures: none; text-align: center; text-anchor: middle; fill: rgb(29, 29, 29);" d="m 182.6015,0 -4.448,-7.04 q -0.768,0.064 -1.248,0.064 h -5.696 V 0 h -3.072 v -22.4 h 8.768 q 4.256,0 6.56,1.984 2.336,1.952 2.336,5.568 0,2.72 -1.28,4.576 -1.248,1.856 -3.616,2.688 L 186.1215,0 Z m -5.696,-9.76 q 2.88,0 4.416,-1.248 1.536,-1.28 1.536,-3.744 0,-2.4 -1.536,-3.616 -1.536,-1.248 -4.416,-1.248 h -5.696 v 9.856 z" transform="translate(0 384.0591200874547) translate(251.9999999999999 60.601911129350846) scale(0.5952718245825516) translate(-168.1375 22.4)"></path>
      <path id="path121360" style="font-style: normal; font-weight: 400; font-size: 32px; line-height: 1; font-family: Montserrat; font-variant-ligatures: none; text-align: center; text-anchor: middle; fill: rgb(29, 29, 29);" d="m 197.7585,-17.024 q 3.936,0 5.952,2.336 2.016,2.304 2.016,6.432 0,0.64 -0.032,0.96 h -13.376 q 0.352,2.272 1.888,3.616 1.568,1.344 3.84,1.344 1.504,0 2.784,-0.544 1.312,-0.544 2.272,-1.536 l 1.632,1.696 q -1.248,1.344 -3.008,2.08 -1.76,0.736 -3.904,0.736 -2.496,0 -4.448,-1.056 -1.92,-1.088 -3.008,-3.04 -1.056,-1.952 -1.056,-4.448 0,-2.496 1.056,-4.416 1.088,-1.952 3.008,-3.04 1.92,-1.12 4.384,-1.12 z m 5.28,7.424 q -0.128,-2.304 -1.536,-3.616 -1.408,-1.344 -3.712,-1.344 -2.24,0 -3.744,1.344 -1.472,1.344 -1.76,3.616 z" transform="translate(0 384.0591200874547) translate(267.580049464799 63.80209245830664) scale(0.5952718245825516) translate(-189.3105 17.024)"></path>
      <path id="path121362" style="font-style: normal; font-weight: 400; font-size: 32px; line-height: 1; font-family: Montserrat; font-variant-ligatures: none; text-align: center; text-anchor: middle; fill: rgb(29, 29, 29);" d="m 219.035,-13.184 q -1.056,-0.64 -2.336,-1.024 -1.248,-0.384 -2.4,-0.384 -1.344,0 -2.176,0.512 -0.8,0.48 -0.8,1.504 0,1.024 0.896,1.568 0.928,0.512 2.784,1.056 1.76,0.512 2.88,1.024 1.12,0.512 1.888,1.504 0.8,0.992 0.8,2.624 0,2.4 -1.824,3.648 -1.792,1.248 -4.48,1.248 -1.888,0 -3.68,-0.608 -1.76,-0.608 -2.976,-1.728 l 1.12,-2.176 q 1.056,0.96 2.592,1.536 1.568,0.576 3.04,0.576 1.472,0 2.368,-0.544 0.896,-0.544 0.896,-1.664 0,-1.152 -0.96,-1.728 -0.928,-0.576 -2.848,-1.152 -1.696,-0.48 -2.784,-0.96 -1.056,-0.512 -1.824,-1.472 -0.736,-0.96 -0.736,-2.496 0,-2.368 1.728,-3.552 1.728,-1.184 4.32,-1.184 1.536,0 3.008,0.448 1.504,0.416 2.592,1.152 z" transform="translate(0 384.0591200874547) translate(281.45018061348475 63.78304375992) scale(0.5952718245825516) translate(-207.611 17.056)"></path>
      <path id="path121364" style="font-style: normal; font-weight: 400; font-size: 32px; line-height: 1; font-family: Montserrat; font-variant-ligatures: none; text-align: center; text-anchor: middle; fill: rgb(29, 29, 29);" d="m 231.321,-17.024 q 3.936,0 5.952,2.336 2.016,2.304 2.016,6.432 0,0.64 -0.032,0.96 h -13.376 q 0.352,2.272 1.888,3.616 1.568,1.344 3.84,1.344 1.504,0 2.784,-0.544 1.312,-0.544 2.272,-1.536 l 1.632,1.696 q -1.248,1.344 -3.008,2.08 -1.76,0.736 -3.904,0.736 -2.496,0 -4.448,-1.056 -1.92,-1.088 -3.008,-3.04 -1.056,-1.952 -1.056,-4.448 0,-2.496 1.056,-4.416 1.088,-1.952 3.008,-3.04 1.92,-1.12 4.384,-1.12 z m 5.28,7.424 q -0.128,-2.304 -1.536,-3.616 -1.408,-1.344 -3.712,-1.344 -2.24,0 -3.744,1.344 -1.472,1.344 -1.76,3.616 z" transform="translate(0 384.0591200874547) translate(293.5115783231764 63.80209245830664) scale(0.5952718245825516) translate(-222.873 17.024)"></path>
      <path id="path121366" style="font-style: normal; font-weight: 400; font-size: 32px; line-height: 1; font-family: Montserrat; font-variant-ligatures: none; text-align: center; text-anchor: middle; fill: rgb(29, 29, 29);" d="m 253.6855,0 v -2.368 q -1.888,2.496 -5.92,2.496 -1.76,0 -3.104,-0.672 -1.312,-0.672 -2.048,-1.856 -0.704,-1.184 -0.704,-2.656 0,-2.272 1.664,-3.584 1.696,-1.344 4.704,-1.376 h 5.376 v -0.8 q 0,-1.792 -1.12,-2.752 -1.088,-0.992 -3.2,-0.992 -2.56,0 -5.216,1.824 l -1.248,-2.048 q 1.824,-1.184 3.36,-1.696 1.568,-0.544 3.712,-0.544 3.168,0 4.896,1.568 1.728,1.536 1.76,4.32 L 256.6295,0 Z m -5.312,-2.336 q 2.08,0 3.52,-0.992 1.472,-1.024 1.76,-2.688 v -1.696 h -4.96 q -2.016,0 -3.008,0.608 -0.96,0.608 -0.96,1.92 0,1.312 0.992,2.08 0.992,0.768 2.656,0.768 z" transform="translate(0 384.0591200874547) translate(307.8198295347549 63.80209245830664) scale(0.5952718245825516) translate(-241.9095 17.024)"></path>
      <path id="path121368" style="font-style: normal; font-weight: 400; font-size: 32px; line-height: 1; font-family: Montserrat; font-variant-ligatures: none; text-align: center; text-anchor: middle; fill: rgb(29, 29, 29);" d="m 264.888,-13.28 q 0.832,-1.824 2.368,-2.752 1.536,-0.96 3.648,-0.992 v 2.88 q -2.592,-0.096 -4.192,1.344 -1.6,1.44 -1.824,3.872 V 0 h -2.976 v -16.928 h 2.976 z" transform="translate(0 384.0591200874547) translate(322.70311332888014 63.80209245830664) scale(0.5952718245825516) translate(-261.912 17.024)"></path>
      <path id="path121370" style="font-style: normal; font-weight: 400; font-size: 32px; line-height: 1; font-family: Montserrat; font-variant-ligatures: none; text-align: center; text-anchor: middle; fill: rgb(29, 29, 29);" d="m 286.034,-12.416 q -2.016,-1.952 -4.832,-1.952 -1.664,0 -2.976,0.736 -1.28,0.736 -2.016,2.08 -0.736,1.344 -0.736,3.104 0,1.76 0.704,3.104 0.736,1.344 1.984,2.112 1.28,0.736 2.912,0.736 1.632,0 2.944,-0.544 1.312,-0.544 2.176,-1.568 l 1.696,1.728 q -1.152,1.44 -2.944,2.208 -1.76,0.768 -4,0.768 -2.464,0 -4.384,-1.088 -1.92,-1.088 -3.008,-3.008 -1.056,-1.952 -1.056,-4.448 0,-2.496 1.056,-4.448 1.088,-1.952 3.008,-3.04 1.92,-1.088 4.384,-1.088 2.144,0 3.84,0.672 1.728,0.64 2.88,1.888 z" transform="translate(0 384.0591200874547) translate(331.98101998682375 63.80209245830664) scale(0.5952718245825516) translate(-272.498 17.024)"></path>
      <path id="path121372" style="font-style: normal; font-weight: 400; font-size: 32px; line-height: 1; font-family: Montserrat; font-variant-ligatures: none; text-align: center; text-anchor: middle; fill: rgb(29, 29, 29);" d="m 301.762,-17.024 q 2.976,0 4.672,1.76 1.696,1.728 1.696,4.8 V 0 h -2.976 v -9.664 q 0,-2.144 -1.216,-3.328 -1.184,-1.216 -3.296,-1.216 -2.464,0.032 -3.904,1.664 -1.44,1.632 -1.44,4.224 V 0 h -2.976 v -23.744 h 2.976 v 10.464 q 1.696,-3.68 6.464,-3.744 z" transform="translate(0 384.0591200874547) translate(346.75804776026104 59.801865797111894) scale(0.5952718245825516) translate(-292.322 23.744)"></path>
      <path id="path121374" style="font-style: normal; font-weight: 400; font-size: 32px; line-height: 1; font-family: Montserrat; font-variant-ligatures: none; text-align: center; text-anchor: middle; fill: rgb(29, 29, 29);" d="m 338.299,-17.024 q -1.28,-1.344 -2.976,-2.08 -1.696,-0.768 -3.488,-0.768 -2.368,0 -4.352,1.152 -1.984,1.152 -3.136,3.136 -1.152,1.952 -1.152,4.32 0,2.336 1.152,4.32 1.152,1.984 3.136,3.136 1.984,1.152 4.352,1.152 1.76,0 3.456,-0.704 1.696,-0.736 3.008,-1.984 l 1.856,2.016 q -1.696,1.664 -3.936,2.624 -2.24,0.928 -4.544,0.928 -3.2,0 -5.856,-1.504 -2.656,-1.536 -4.192,-4.16 -1.536,-2.624 -1.536,-5.792 0,-3.136 1.536,-5.728 1.568,-2.624 4.256,-4.128 2.688,-1.504 5.92,-1.504 2.336,0 4.512,0.896 2.208,0.864 3.808,2.464 z" transform="translate(0 384.0591200874547) translate(366.2645101800067 60.487618939030995) scale(0.5952718245825516) translate(-320.091 22.592)"></path>
      <path id="path121376" style="font-style: normal; font-weight: 400; font-size: 32px; line-height: 1; font-family: Montserrat; font-variant-ligatures: none; text-align: center; text-anchor: middle; fill: rgb(29, 29, 29);" d="m 350.446,-17.024 q 3.936,0 5.952,2.336 2.016,2.304 2.016,6.432 0,0.64 -0.032,0.96 h -13.376 q 0.352,2.272 1.888,3.616 1.568,1.344 3.84,1.344 1.504,0 2.784,-0.544 1.312,-0.544 2.272,-1.536 l 1.632,1.696 q -1.248,1.344 -3.008,2.08 -1.76,0.736 -3.904,0.736 -2.496,0 -4.448,-1.056 -1.92,-1.088 -3.008,-3.04 -1.056,-1.952 -1.056,-4.448 0,-2.496 1.056,-4.416 1.088,-1.952 3.008,-3.04 1.92,-1.12 4.384,-1.12 z m 5.28,7.424 q -0.128,-2.304 -1.536,-3.616 -1.408,-1.344 -3.712,-1.344 -2.24,0 -3.744,1.344 -1.472,1.344 -1.76,3.616 z" transform="translate(0 384.0591200874547) translate(382.2814891640494 63.80209245830664) scale(0.5952718245825516) translate(-341.998 17.024)"></path>
      <path id="path121378" style="font-style: normal; font-weight: 400; font-size: 32px; line-height: 1; font-family: Montserrat; font-variant-ligatures: none; text-align: center; text-anchor: middle; fill: rgb(29, 29, 29);" d="m 371.8825,-17.024 q 2.976,0 4.672,1.76 1.696,1.728 1.696,4.8 V 0 h -2.976 v -9.664 q 0,-2.144 -1.216,-3.328 -1.184,-1.216 -3.296,-1.216 -2.272,0.032 -3.712,1.472 -1.408,1.408 -1.6,3.68 V 0 h -2.976 v -16.928 h 2.976 v 3.584 q 1.696,-3.616 6.432,-3.68 z" transform="translate(0 384.0591200874547) translate(397.44693180302676 63.80209245830664) scale(0.5952718245825516) translate(-362.4745 17.024)"></path>
      <path id="path121380" style="font-style: normal; font-weight: 400; font-size: 32px; line-height: 1; font-family: Montserrat; font-variant-ligatures: none; text-align: center; text-anchor: middle; fill: rgb(29, 29, 29);" d="m 392.625,-1.12 q -1.952,1.248 -3.968,1.248 -2.016,0 -3.264,-1.184 -1.248,-1.216 -1.248,-3.648 v -9.376 h -2.4 v -2.272 h 2.4 v -4.544 h 3.008 v 4.544 h 5.184 v 2.272 h -5.184 v 8.832 q 0,1.408 0.512,2.016 0.512,0.608 1.536,0.608 1.216,0 2.624,-0.8 z" transform="translate(0 384.0591200874547) translate(411.8944766215576 61.497199953523) scale(0.5952718245825516) translate(-381.745 20.896)"></path>
      <path id="path121382" style="font-style: normal; font-weight: 400; font-size: 32px; line-height: 1; font-family: Montserrat; font-variant-ligatures: none; text-align: center; text-anchor: middle; fill: rgb(29, 29, 29);" d="m 402.7585,-17.024 q 3.936,0 5.952,2.336 2.016,2.304 2.016,6.432 0,0.64 -0.032,0.96 h -13.376 q 0.352,2.272 1.888,3.616 1.568,1.344 3.84,1.344 1.504,0 2.784,-0.544 1.312,-0.544 2.272,-1.536 l 1.632,1.696 q -1.248,1.344 -3.008,2.08 -1.76,0.736 -3.904,0.736 -2.496,0 -4.448,-1.056 -1.92,-1.088 -3.008,-3.04 -1.056,-1.952 -1.056,-4.448 0,-2.496 1.056,-4.416 1.088,-1.952 3.008,-3.04 1.92,-1.12 4.384,-1.12 z m 5.28,7.424 q -0.128,-2.304 -1.536,-3.616 -1.408,-1.344 -3.712,-1.344 -2.24,0 -3.744,1.344 -1.472,1.344 -1.76,3.616 z" transform="translate(0 384.0591200874547) translate(422.35072385626245 63.80209245830664) scale(0.5952718245825516) translate(-394.3105 17.024)"></path>
      <path id="path121384" style="font-style: normal; font-weight: 400; font-size: 32px; line-height: 1; font-family: Montserrat; font-variant-ligatures: none; text-align: center; text-anchor: middle; fill: rgb(29, 29, 29);" d="m 417.763,-13.28 q 0.832,-1.824 2.368,-2.752 1.536,-0.96 3.648,-0.992 v 2.88 q -2.592,-0.096 -4.192,1.344 -1.6,1.44 -1.824,3.872 V 0 h -2.976 v -16.928 h 2.976 z" transform="translate(0 384.0591200874547) translate(437.5161664952398 63.80209245830664) scale(0.5952718245825516) translate(-414.787 17.024)"></path>
      <path id="path121386" style="font-style: normal; font-weight: 400; font-size: 32px; line-height: 1; font-family: Montserrat; font-variant-ligatures: none; text-align: center; text-anchor: middle; fill: rgb(29, 29, 29);" d="m 441.652,-21.28 q -1.152,0 -1.92,0.704 -0.768,0.704 -0.768,2.016 v 2.208 h 4.672 v 2.272 h -4.672 V 0 h -2.976 v -14.08 h -2.208 v -2.272 h 2.208 v -1.824 q 0,-1.856 0.768,-3.136 0.8,-1.312 2.08,-1.952 1.28,-0.672 2.752,-0.672 1.408,0 2.944,0.768 l -0.704,2.432 q -1.152,-0.544 -2.176,-0.544 z" transform="translate(0 384.0591200874547) translate(451.79852338244893 59.68757360679205) scale(0.5952718245825516) translate(-433.78 23.936)"></path>
      <path id="path121388" style="font-style: normal; font-weight: 400; font-size: 32px; line-height: 1; font-family: Montserrat; font-variant-ligatures: none; text-align: center; text-anchor: middle; fill: rgb(29, 29, 29);" d="m 453.077,-17.024 q 2.528,0 4.48,1.088 1.984,1.088 3.072,3.04 1.12,1.92 1.12,4.416 0,2.496 -1.12,4.448 -1.088,1.952 -3.072,3.04 -1.952,1.088 -4.48,1.088 -2.56,0 -4.544,-1.088 -1.952,-1.088 -3.072,-3.008 -1.088,-1.952 -1.088,-4.48 0,-2.496 1.088,-4.416 1.12,-1.952 3.072,-3.04 1.984,-1.088 4.544,-1.088 z m 0,2.592 q -1.664,0 -2.976,0.768 -1.28,0.768 -2.016,2.144 -0.704,1.344 -0.704,3.072 0,1.76 0.704,3.136 0.736,1.376 2.016,2.144 1.312,0.736 2.976,0.736 1.632,0 2.912,-0.736 1.312,-0.768 2.016,-2.144 0.736,-1.376 0.736,-3.136 0,-1.728 -0.736,-3.072 -0.704,-1.376 -2.016,-2.144 -1.28,-0.768 -2.912,-0.768 z" transform="translate(0 384.0591200874547) translate(461.08059694316466 63.80209245830664) scale(0.5952718245825516) translate(-444.373 17.024)"></path>
      <path id="path121390" style="font-style: normal; font-weight: 400; font-size: 32px; line-height: 1; font-family: Montserrat; font-variant-ligatures: none; text-align: center; text-anchor: middle; fill: rgb(29, 29, 29);" d="m 468.888,-13.28 q 0.832,-1.824 2.368,-2.752 1.536,-0.96 3.648,-0.992 v 2.88 q -2.592,-0.096 -4.192,1.344 -1.6,1.44 -1.824,3.872 V 0 h -2.976 v -16.928 h 2.976 z" transform="translate(0 384.0591200874547) translate(476.878515895761 63.80209245830664) scale(0.5952718245825516) translate(-465.912 17.024)"></path>
      <path id="path121392" style="font-style: normal; font-weight: 400; font-size: 32px; line-height: 1; font-family: Montserrat; font-variant-ligatures: none; text-align: center; text-anchor: middle; fill: rgb(29, 29, 29);" d="m 496.617,-22.592 q 3.232,0 5.92,1.504 2.72,1.504 4.288,4.128 1.568,2.592 1.568,5.728 0,3.136 -1.568,5.792 -1.568,2.624 -4.288,4.16 -2.688,1.504 -5.92,1.504 -3.232,0 -5.952,-1.504 -2.688,-1.536 -4.256,-4.16 -1.568,-2.656 -1.568,-5.792 0,-3.136 1.568,-5.728 1.568,-2.624 4.256,-4.128 2.688,-1.504 5.952,-1.504 z m 0.032,2.752 q -2.336,0 -4.352,1.152 -1.984,1.152 -3.168,3.136 -1.184,1.952 -1.184,4.32 0,2.368 1.184,4.352 1.184,1.984 3.168,3.168 2.016,1.152 4.352,1.152 2.336,0 4.288,-1.152 1.984,-1.184 3.136,-3.168 1.184,-1.984 1.184,-4.352 0,-2.368 -1.184,-4.32 -1.152,-1.984 -3.136,-3.136 -1.952,-1.152 -4.288,-1.152 z" transform="translate(0 384.0591200874547) translate(491.12277538619685 60.487618939030995) scale(0.5952718245825516) translate(-484.841 22.592)"></path>
      <path id="path121394" style="font-style: normal; font-weight: 400; font-size: 32px; line-height: 1; font-family: Montserrat; font-variant-ligatures: none; text-align: center; text-anchor: middle; fill: rgb(29, 29, 29);" d="m 521.945,-17.024 q 2.368,0 4.224,1.088 1.856,1.088 2.88,3.04 1.024,1.952 1.024,4.48 0,2.496 -1.024,4.448 -0.992,1.92 -2.848,3.008 -1.824,1.056 -4.192,1.056 -2.144,0 -3.776,-0.896 -1.632,-0.896 -2.56,-2.56 v 9.568 h -2.976 v -23.136 h 2.976 v 3.36 q 0.928,-1.664 2.528,-2.56 1.632,-0.896 3.744,-0.896 z m -0.576,14.528 q 1.632,0 2.912,-0.768 1.312,-0.768 2.016,-2.144 0.736,-1.376 0.736,-3.104 0,-1.696 -0.736,-3.072 -0.736,-1.376 -2.016,-2.144 -1.28,-0.768 -2.912,-0.768 -1.632,0 -2.944,0.768 -1.28,0.768 -2.016,2.144 -0.736,1.376 -0.736,3.072 0,1.76 0.736,3.136 0.736,1.344 2.016,2.112 1.312,0.768 2.944,0.768 z" transform="translate(0 384.0591200874547) translate(510.6810264546811 63.80209245830664) scale(0.5952718245825516) translate(-512.697 17.024)"></path>
      <path id="path121396" style="font-style: normal; font-weight: 400; font-size: 32px; line-height: 1; font-family: Montserrat; font-variant-ligatures: none; text-align: center; text-anchor: middle; fill: rgb(29, 29, 29);" d="m 541.0085,-17.024 q 3.936,0 5.952,2.336 2.016,2.304 2.016,6.432 0,0.64 -0.032,0.96 h -13.376 q 0.352,2.272 1.888,3.616 1.568,1.344 3.84,1.344 1.504,0 2.784,-0.544 1.312,-0.544 2.272,-1.536 l 1.632,1.696 q -1.248,1.344 -3.008,2.08 -1.76,0.736 -3.904,0.736 -2.496,0 -4.448,-1.056 -1.92,-1.088 -3.008,-3.04 -1.056,-1.952 -1.056,-4.448 0,-2.496 1.056,-4.416 1.088,-1.952 3.008,-3.04 1.92,-1.12 4.384,-1.12 z m 5.28,7.424 q -0.128,-2.304 -1.536,-3.616 -1.408,-1.344 -3.712,-1.344 -2.24,0 -3.744,1.344 -1.472,1.344 -1.76,3.616 z" transform="translate(0 384.0591200874547) translate(525.4815674651894 63.80209245830664) scale(0.5952718245825516) translate(-532.5605 17.024)"></path>
      <path id="path121398" style="font-style: normal; font-weight: 400; font-size: 32px; line-height: 1; font-family: Montserrat; font-variant-ligatures: none; text-align: center; text-anchor: middle; fill: rgb(29, 29, 29);" d="m 562.445,-17.024 q 2.976,0 4.672,1.76 1.696,1.728 1.696,4.8 V 0 h -2.976 v -9.664 q 0,-2.144 -1.216,-3.328 -1.184,-1.216 -3.296,-1.216 -2.272,0.032 -3.712,1.472 -1.408,1.408 -1.6,3.68 V 0 h -2.976 v -16.928 h 2.976 v 3.584 q 1.696,-3.616 6.432,-3.68 z" transform="translate(0 384.0591200874547) translate(540.6470101041667 63.80209245830664) scale(0.5952718245825516) translate(-553.037 17.024)"></path>
      <path id="path121400" style="font-style: normal; font-weight: 400; font-size: 32px; line-height: 1; font-family: Montserrat; font-variant-ligatures: none; text-align: center; text-anchor: middle; fill: rgb(29, 29, 29);" d="m 591.8825,-22.4 q 3.264,0 5.888,1.472 2.656,1.44 4.16,4 1.504,2.56 1.504,5.728 0,3.168 -1.536,5.728 -1.504,2.56 -4.16,4.032 -2.656,1.44 -5.952,1.44 h -9.024 v -22.4 z m 0.064,19.616 q 2.336,0 4.224,-1.088 1.92,-1.088 3.008,-3.008 1.12,-1.92 1.12,-4.288 0,-2.4 -1.12,-4.32 -1.12,-1.92 -3.072,-3.008 -1.92,-1.12 -4.288,-1.12 h -5.984 v 16.832 z" transform="translate(0 384.0591200874547) translate(561.3181218487082 60.601911129350846) scale(0.5952718245825516) translate(-582.7625 22.4)"></path>
      <path id="path121402" style="font-style: normal; font-weight: 400; font-size: 32px; line-height: 1; font-family: Montserrat; font-variant-ligatures: none; text-align: center; text-anchor: middle; fill: rgb(29, 29, 29);" d="m 607.537,-16.928 h 2.976 V 0 h -2.976 z m 1.472,-6.752 q 0.8,0 1.312,0.544 0.544,0.544 0.544,1.376 0,0.832 -0.544,1.376 -0.512,0.544 -1.312,0.544 -0.8,0 -1.344,-0.544 -0.512,-0.544 -0.512,-1.376 0,-0.832 0.512,-1.376 0.544,-0.544 1.344,-0.544 z" transform="translate(0 384.0591200874547) translate(578.8134584091017 59.839963193885175) scale(0.5952718245825516) translate(-607.153 23.68)"></path>
      <path id="path121404" style="font-style: normal; font-weight: 400; font-size: 32px; line-height: 1; font-family: Montserrat; font-variant-ligatures: none; text-align: center; text-anchor: middle; fill: rgb(29, 29, 29);" d="m 631.263,-16.928 v 15.2 q 0,2.432 -1.088,4.256 -1.056,1.824 -3.008,2.784 -1.952,0.992 -4.544,0.992 -3.744,0 -6.976,-2.368 l 1.312,-2.176 q 1.248,1.024 2.592,1.504 1.344,0.512 2.944,0.512 2.624,0 4.192,-1.472 1.568,-1.472 1.568,-3.936 V -4 q -0.896,1.536 -2.432,2.4 -1.536,0.832 -3.52,0.832 -2.272,0 -4.032,-1.024 -1.728,-1.056 -2.688,-2.912 -0.96,-1.856 -0.96,-4.256 0,-2.368 0.96,-4.192 0.96,-1.824 2.688,-2.848 1.76,-1.024 4.032,-1.024 2.016,0 3.52,0.832 1.536,0.832 2.432,2.368 v -3.104 z m -8.384,13.76 q 1.568,0 2.784,-0.736 1.216,-0.736 1.888,-2.016 0.704,-1.312 0.704,-2.944 0,-1.664 -0.704,-2.944 -0.672,-1.312 -1.888,-2.048 -1.216,-0.736 -2.784,-0.736 -1.568,0 -2.816,0.736 -1.216,0.736 -1.92,2.048 -0.704,1.28 -0.704,2.944 0.032,2.496 1.536,4.096 1.504,1.6 3.904,1.6 z" transform="translate(0 384.0591200874547) translate(586.2364980616461 63.80209245830664) scale(0.5952718245825516) translate(-614.623 17.024)"></path>
      <path id="path121406" style="font-style: normal; font-weight: 400; font-size: 32px; line-height: 1; font-family: Montserrat; font-variant-ligatures: none; text-align: center; text-anchor: middle; fill: rgb(29, 29, 29);" d="m 636.7245,-16.928 h 2.976 V 0 h -2.976 z m 1.472,-6.752 q 0.8,0 1.312,0.544 0.544,0.544 0.544,1.376 0,0.832 -0.544,1.376 -0.512,0.544 -1.312,0.544 -0.8,0 -1.344,-0.544 -0.512,-0.544 -0.512,-1.376 0,-0.832 0.512,-1.376 0.544,-0.544 1.344,-0.544 z" transform="translate(0 384.0591200874547) translate(602.1406730349304 59.839963193885175) scale(0.5952718245825516) translate(-636.3405 23.68)"></path>
      <path id="path121408" style="font-style: normal; font-weight: 400; font-size: 32px; line-height: 1; font-family: Montserrat; font-variant-ligatures: none; text-align: center; text-anchor: middle; fill: rgb(29, 29, 29);" d="m 654.5625,-1.12 q -1.952,1.248 -3.968,1.248 -2.016,0 -3.264,-1.184 -1.248,-1.216 -1.248,-3.648 v -9.376 h -2.4 v -2.272 h 2.4 v -4.544 h 3.008 v 4.544 h 5.184 v 2.272 h -5.184 v 8.832 q 0,1.408 0.512,2.016 0.512,0.608 1.536,0.608 1.216,0 2.624,-0.8 z" transform="translate(0 384.0591200874547) translate(609.4875178939282 61.497199953523) scale(0.5952718245825516) translate(-643.6825 20.896)"></path>
      <path id="path121410" style="font-style: normal; font-weight: 400; font-size: 32px; line-height: 1; font-family: Montserrat; font-variant-ligatures: none; text-align: center; text-anchor: middle; fill: rgb(29, 29, 29);" d="m 668.498,0 v -2.368 q -1.888,2.496 -5.92,2.496 -1.76,0 -3.104,-0.672 -1.312,-0.672 -2.048,-1.856 -0.704,-1.184 -0.704,-2.656 0,-2.272 1.664,-3.584 1.696,-1.344 4.704,-1.376 h 5.376 v -0.8 q 0,-1.792 -1.12,-2.752 -1.088,-0.992 -3.2,-0.992 -2.56,0 -5.216,1.824 l -1.248,-2.048 q 1.824,-1.184 3.36,-1.696 1.568,-0.544 3.712,-0.544 3.168,0 4.896,1.568 1.728,1.536 1.76,4.32 L 671.442,0 Z m -5.312,-2.336 q 2.08,0 3.52,-0.992 1.472,-1.024 1.76,-2.688 v -1.696 h -4.96 q -2.016,0 -3.008,0.608 -0.96,0.608 -0.96,1.92 0,1.312 0.992,2.08 0.992,0.768 2.656,0.768 z" transform="translate(0 384.0591200874547) translate(620.225923973485 63.80209245830664) scale(0.5952718245825516) translate(-656.722 17.024)"></path>
      <path id="path121412" style="font-style: normal; font-weight: 400; font-size: 32px; line-height: 1; font-family: Montserrat; font-variant-ligatures: none; text-align: center; text-anchor: middle; fill: rgb(29, 29, 29);" d="m 676.8845,-23.744 h 2.976 V 0 h -2.976 z" transform="translate(0 384.0591200874547) translate(635.2044512595435 59.801865797111894) scale(0.5952718245825516) translate(-676.8845 23.744)"></path>
      <path id="path121414" style="font-style: normal; font-weight: 400; font-size: 32px; line-height: 1; font-family: Montserrat; font-variant-ligatures: none; text-align: center; text-anchor: middle; fill: rgb(29, 29, 29);" d="m 694.5125,-22.4 h 3.072 V 0 h -3.072 z" transform="translate(0 384.0591200874547) translate(648.6742621061975 60.601911129350846) scale(0.5952718245825516) translate(-694.5125 22.4)"></path>
      <path id="path121416" style="font-style: normal; font-weight: 400; font-size: 32px; line-height: 1; font-family: Montserrat; font-variant-ligatures: none; text-align: center; text-anchor: middle; fill: rgb(29, 29, 29);" d="m 713.1325,-17.024 q 2.976,0 4.672,1.76 1.696,1.728 1.696,4.8 V 0 h -2.976 v -9.664 q 0,-2.144 -1.216,-3.328 -1.184,-1.216 -3.296,-1.216 -2.272,0.032 -3.712,1.472 -1.408,1.408 -1.6,3.68 V 0 h -2.976 v -16.928 h 2.976 v 3.584 q 1.696,-3.616 6.432,-3.68 z" transform="translate(0 384.0591200874547) translate(657.1342652771647 63.80209245830664) scale(0.5952718245825516) translate(-703.7245 17.024)"></path>
      <path id="path121418" style="font-style: normal; font-weight: 400; font-size: 32px; line-height: 1; font-family: Montserrat; font-variant-ligatures: none; text-align: center; text-anchor: middle; fill: rgb(29, 29, 29);" d="m 734.195,-17.024 q 2.976,0 4.672,1.76 1.696,1.728 1.696,4.8 V 0 h -2.976 v -9.664 q 0,-2.144 -1.216,-3.328 -1.184,-1.216 -3.296,-1.216 -2.272,0.032 -3.712,1.472 -1.408,1.408 -1.6,3.68 V 0 h -2.976 v -16.928 h 2.976 v 3.584 q 1.696,-3.616 6.432,-3.68 z" transform="translate(0 384.0591200874547) translate(672.6485372053475 63.80209245830664) scale(0.5952718245825516) translate(-724.787 17.024)"></path>
      <path id="path121420" style="font-style: normal; font-weight: 400; font-size: 32px; line-height: 1; font-family: Montserrat; font-variant-ligatures: none; text-align: center; text-anchor: middle; fill: rgb(29, 29, 29);" d="m 752.8895,-17.024 q 2.528,0 4.48,1.088 1.984,1.088 3.072,3.04 1.12,1.92 1.12,4.416 0,2.496 -1.12,4.448 -1.088,1.952 -3.072,3.04 -1.952,1.088 -4.48,1.088 -2.56,0 -4.544,-1.088 -1.952,-1.088 -3.072,-3.008 -1.088,-1.952 -1.088,-4.48 0,-2.496 1.088,-4.416 1.12,-1.952 3.072,-3.04 1.984,-1.088 4.544,-1.088 z m 0,2.592 q -1.664,0 -2.976,0.768 -1.28,0.768 -2.016,2.144 -0.704,1.344 -0.704,3.072 0,1.76 0.704,3.136 0.736,1.376 2.016,2.144 1.312,0.736 2.976,0.736 1.632,0 2.912,-0.736 1.312,-0.768 2.016,-2.144 0.736,-1.376 0.736,-3.136 0,-1.728 -0.736,-3.072 -0.704,-1.376 -2.016,-2.144 -1.28,-0.768 -2.912,-0.768 z" transform="translate(0 384.0591200874547) translate(687.172276817425 63.80209245830664) scale(0.5952718245825516) translate(-744.1855 17.024)"></path>
      <path id="path121422" style="font-style: normal; font-weight: 400; font-size: 32px; line-height: 1; font-family: Montserrat; font-variant-ligatures: none; text-align: center; text-anchor: middle; fill: rgb(29, 29, 29);" d="m 762.346,-16.928 h 3.168 l 5.088,13.984 5.056,-13.984 h 3.008 L 772.074,0 h -3.104 z" transform="translate(0 384.0591200874547) translate(700.9590699106692 63.85923855346657) scale(0.5952718245825516) translate(-762.346 16.928)"></path>
      <path id="path121424" style="font-style: normal; font-weight: 400; font-size: 32px; line-height: 1; font-family: Montserrat; font-variant-ligatures: none; text-align: center; text-anchor: middle; fill: rgb(29, 29, 29);" d="m 791.373,0 v -2.368 q -1.888,2.496 -5.92,2.496 -1.76,0 -3.104,-0.672 -1.312,-0.672 -2.048,-1.856 -0.704,-1.184 -0.704,-2.656 0,-2.272 1.664,-3.584 1.696,-1.344 4.704,-1.376 h 5.376 v -0.8 q 0,-1.792 -1.12,-2.752 -1.088,-0.992 -3.2,-0.992 -2.56,0 -5.216,1.824 l -1.248,-2.048 q 1.824,-1.184 3.36,-1.696 1.568,-0.544 3.712,-0.544 3.168,0 4.896,1.568 1.728,1.536 1.76,4.32 L 794.317,0 Z m -5.312,-2.336 q 2.08,0 3.52,-0.992 1.472,-1.024 1.76,-2.688 v -1.696 h -4.96 q -2.016,0 -3.008,0.608 -0.96,0.608 -0.96,1.92 0,1.312 0.992,2.08 0.992,0.768 2.656,0.768 z" transform="translate(0 384.0591200874547) translate(714.2044632794556 63.80209245830664) scale(0.5952718245825516) translate(-779.597 17.024)"></path>
      <path id="path121426" style="font-style: normal; font-weight: 400; font-size: 32px; line-height: 1; font-family: Montserrat; font-variant-ligatures: none; text-align: center; text-anchor: middle; fill: rgb(29, 29, 29);" d="m 808.6875,-1.12 q -1.952,1.248 -3.968,1.248 -2.016,0 -3.264,-1.184 -1.248,-1.216 -1.248,-3.648 v -9.376 h -2.4 v -2.272 h 2.4 v -4.544 h 3.008 v 4.544 h 5.184 v 2.272 h -5.184 v 8.832 q 0,1.408 0.512,2.016 0.512,0.608 1.536,0.608 1.216,0 2.624,-0.8 z" transform="translate(0 384.0591200874547) translate(728.0210199639289 61.497199953523) scale(0.5952718245825516) translate(-797.8075 20.896)"></path>
      <path id="path121428" style="font-style: normal; font-weight: 400; font-size: 32px; line-height: 1; font-family: Montserrat; font-variant-ligatures: none; text-align: center; text-anchor: middle; fill: rgb(29, 29, 29);" d="m 812.287,-16.928 h 2.976 V 0 h -2.976 z m 1.472,-6.752 q 0.8,0 1.312,0.544 0.544,0.544 0.544,1.376 0,0.832 -0.544,1.376 -0.512,0.544 -1.312,0.544 -0.8,0 -1.344,-0.544 -0.512,-0.544 -0.512,-1.376 0,-0.832 0.512,-1.376 0.544,-0.544 1.344,-0.544 z" transform="translate(0 384.0591200874547) translate(739.388033090245 59.839963193885175) scale(0.5952718245825516) translate(-811.903 23.68)"></path>
      <path id="path121430" style="font-style: normal; font-weight: 400; font-size: 32px; line-height: 1; font-family: Montserrat; font-variant-ligatures: none; text-align: center; text-anchor: middle; fill: rgb(29, 29, 29);" d="m 828.077,-17.024 q 2.528,0 4.48,1.088 1.984,1.088 3.072,3.04 1.12,1.92 1.12,4.416 0,2.496 -1.12,4.448 -1.088,1.952 -3.072,3.04 -1.952,1.088 -4.48,1.088 -2.56,0 -4.544,-1.088 -1.952,-1.088 -3.072,-3.008 -1.088,-1.952 -1.088,-4.48 0,-2.496 1.088,-4.416 1.12,-1.952 3.072,-3.04 1.984,-1.088 4.544,-1.088 z m 0,2.592 q -1.664,0 -2.976,0.768 -1.28,0.768 -2.016,2.144 -0.704,1.344 -0.704,3.072 0,1.76 0.704,3.136 0.736,1.376 2.016,2.144 1.312,0.736 2.976,0.736 1.632,0 2.912,-0.736 1.312,-0.768 2.016,-2.144 0.736,-1.376 0.736,-3.136 0,-1.728 -0.736,-3.072 -0.704,-1.376 -2.016,-2.144 -1.28,-0.768 -2.912,-0.768 z" transform="translate(0 384.0591200874547) translate(746.8110727427894 63.80209245830664) scale(0.5952718245825516) translate(-819.373 17.024)"></path>
      <path id="path121432" style="font-style: normal; font-weight: 400; font-size: 32px; line-height: 1; font-family: Montserrat; font-variant-ligatures: none; text-align: center; text-anchor: middle; fill: rgb(29, 29, 29);" d="m 850.32,-17.024 q 2.976,0 4.672,1.76 1.696,1.728 1.696,4.8 V 0 h -2.976 v -9.664 q 0,-2.144 -1.216,-3.328 -1.184,-1.216 -3.296,-1.216 -2.272,0.032 -3.712,1.472 -1.408,1.408 -1.6,3.68 V 0 h -2.976 v -16.928 h 2.976 v 3.584 q 1.696,-3.616 6.432,-3.68 z" transform="translate(0 384.0591200874547) translate(762.6089916953858 63.80209245830664) scale(0.5952718245825516) translate(-840.912 17.024)"></path>
    </g>
  </g>
</svg>
