<svg xmlns="http://www.w3.org/2000/svg" xmlns:xlink="http://www.w3.org/1999/xlink" version="1.1" x="0px" y="0px" viewBox="0 0 100 125" style="enable-background:new 0 0 100 100;" xml:space="preserve"><g><path d="M52.4,74.5C52.4,74.5,52.4,74.5,52.4,74.5C52.4,74.5,52.4,74.5,52.4,74.5l-6.6-7l20.3-7.7c0.4-0.2,0.7-0.5,0.7-1v-9.4   l6.9-12.9c0.2-0.2,0.3-0.4,0.4-0.7l6.6-12.4l8.3-2c0.3-0.1,0.5-0.3,0.7-0.5c0.1-0.3,0.2-0.6,0.1-0.8l-2.9-8.8   c-0.1-0.4-0.5-0.7-0.9-0.7c-0.4,0-0.8,0.2-1,0.5l-5.6,10.5l-7.7,1.9c-0.5,0.1-0.8,0.6-0.8,1.1l1.1,10.2L63.2,36   c-0.3,0-0.5,0.2-0.7,0.4c-0.2,0.2-0.2,0.5-0.2,0.8l2.3,11.5l-20,16.5L41.5,53l3.8-15l3.5,5.4c0.2,0.3,0.5,0.5,0.9,0.5   c0,0,0.1,0,0.1,0c0.4,0,0.7-0.3,0.9-0.6l2.8-6.2c0.1-0.3,0.1-0.6,0-0.9s-0.4-0.5-0.7-0.5l-7.6-1.2c0,0,0,0,0,0c0,0-0.1,0-0.1,0   c0,0,0,0,0,0c0,0-0.1,0-0.1,0c0,0,0,0-0.1,0c0,0-0.1,0-0.1,0c0,0,0,0-0.1,0c0,0,0,0-0.1,0L36.4,38c-0.5,0.2-0.7,0.7-0.6,1.2   l3.5,13.7L28.7,71l-7.2-8.1c-0.2-0.3-0.6-0.4-1-0.3c-0.4,0.1-0.6,0.3-0.8,0.6l-5.7,14.2l-9,5.7c-0.3,0.2-0.4,0.5-0.5,0.8   c0,0.3,0.1,0.6,0.3,0.9l5,4.8c0.2,0.2,0.5,0.3,0.7,0.3c0.1,0,0.1,0,0.2,0c0.3-0.1,0.6-0.3,0.7-0.6l4.2-10.3L43,68.5l-0.1,10   l-9.3,4.8c-0.4,0.2-0.6,0.5-0.6,0.9c0,0.4,0.2,0.8,0.6,0.9l5.7,2.6c0.1,0.1,0.3,0.1,0.4,0.1c0.4,0,0.7-0.2,0.9-0.6l3.8-7.3l6.2-3.2   l0.5,13l-3.9,3.7c-0.2,0.2-0.3,0.5-0.3,0.8c0,0.3,0.1,0.6,0.3,0.7l4.5,4.1c0.2,0.2,0.4,0.3,0.7,0.3c0.1,0,0.3,0,0.4-0.1   c0.4-0.2,0.6-0.6,0.6-1l-0.3-7.7l6.7-6.5c0.4-0.4,0.4-1,0-1.4L52.4,74.5z M85.6,14.1l1.8,5.4L82,20.9L85.6,14.1z M78,24L73.7,32   L73,25.2L78,24z M10.2,87l-3-2.8l5.5-3.5L10.2,87z M16.8,76.3l4.3-10.7l6,6.8L16.8,76.3z M39.3,85.6l-2.9-1.3l4.9-2.5L39.3,85.6z    M64.6,37.9l6.5-0.9l-4.8,9.1L64.6,37.9z M64.8,51.3v6.8l-15.1,5.8L64.8,51.3z M51,37.5l-1.4,3.2l-2.5-3.9L51,37.5z M38,39.5   l5.4-2.3l-3,11.6L38,39.5z M31.2,70.8l8.8-15.1l2.7,10.7L31.2,70.8z M44.9,77.5l0.1-7.8l4.9,5.2L44.9,77.5z M49.5,94.3l1.7-1.7   l0.1,3.4L49.5,94.3z M53.2,87.9l-0.4-10l5,5.5L53.2,87.9z"/><path d="M95.2,24.2c-0.5-1.1-1.7-1.9-3.4-2.2c-3.3-0.5-8.3,0.8-11.3,4.1c-2.8,3.1-3.9,9.1-3.6,12.2c0.1,1.2,0.4,2,1,2.5   c0.4,0.3,0.9,0.4,1.2,0.4c0.1,0,0.2,0,0.3,0c1.3-0.2,2.3-1.8,3.7-4.3c1-1.6,2.1-3.6,3.6-5.4c2.4-3,4.8-3.8,6.3-4.2   c1-0.3,1.8-0.6,2.2-1.3C95.6,25.1,95.3,24.4,95.2,24.2z M92.5,25.2c-1.7,0.5-4.5,1.4-7.3,4.9c-1.6,2-2.8,4-3.8,5.7   c-0.7,1.2-1.7,2.8-2.2,3.2c-0.2-0.5-0.4-2.2,0.1-4.8c0.5-2.8,1.5-5.3,2.8-6.8c2.1-2.3,5.5-3.5,8.2-3.5c0.4,0,0.8,0,1.2,0.1   c0.9,0.1,1.6,0.5,1.8,0.9C93.1,25.1,92.8,25.1,92.5,25.2z"/><ellipse transform="matrix(0.3276 -0.9448 0.9448 0.3276 28.4365 98.4766)" cx="83.4" cy="29.3" rx="0.5" ry="0.5"/><ellipse transform="matrix(0.3276 -0.9448 0.9448 0.3276 23.5038 98.7936)" cx="81.2" cy="32.9" rx="0.5" ry="0.5"/><ellipse transform="matrix(0.3276 -0.9448 0.9448 0.3276 33.3662 99.8811)" cx="86.9" cy="26.5" rx="0.5" ry="0.5"/><path d="M66.7,20.7c0.4,0.3,1,0.5,1.8,0.5c0.2,0,0.5,0,0.8,0c3.1-0.3,8.7-2.5,11.2-5.8c2.7-3.5,3-8.7,1.9-11.8   c-0.6-1.6-1.6-2.7-2.8-2.9c-0.3-0.1-1-0.2-1.7,0.2c-0.7,0.5-0.8,1.4-0.9,2.4c-0.2,1.6-0.4,4.1-3,7c-1.5,1.8-3.3,3.3-4.6,4.6   c-2.1,1.9-3.5,3.2-3.5,4.5C66,19.7,66.1,20.2,66.7,20.7z M70.8,16.4c1.4-1.3,3.2-2.9,4.8-4.8c2.9-3.4,3.3-6.4,3.4-8.2   c0-0.3,0.1-0.6,0.1-0.8c0.5,0.1,0.9,0.7,1.2,1.6c0.9,2.6,0.6,7-1.6,9.9c-1.2,1.5-3.4,3-6.1,4.1c-2.4,0.9-4.1,1.1-4.7,1   C68.4,18.6,69.8,17.3,70.8,16.4z"/><ellipse transform="matrix(0.8649 -0.5019 0.5019 0.8649 3.7875 40.3742)" cx="76.9" cy="13.1" rx="0.5" ry="0.5"/><ellipse transform="matrix(0.8649 -0.5019 0.5019 0.8649 1.9124 39.194)" cx="73.8" cy="16" rx="0.5" ry="0.5"/><ellipse transform="matrix(0.8649 -0.5019 0.5019 0.8649 6.0296 40.8754)" cx="79" cy="9.2" rx="0.5" ry="0.5"/><path d="M44.2,34.3c2.6,0,4.7-2.1,4.7-4.7s-2.1-4.7-4.7-4.7s-4.7,2.1-4.7,4.7S41.7,34.3,44.2,34.3z M44.2,27c1.4,0,2.6,1.2,2.6,2.6   s-1.2,2.6-2.6,2.6c-1.4,0-2.6-1.2-2.6-2.6S42.8,27,44.2,27z"/><path d="M44.3,31.3c0.4,0,0.8-0.2,1.2-0.5c0.6-0.6,0.6-1.7,0-2.3c-0.6-0.6-1.7-0.6-2.3,0c-0.6,0.6-0.6,1.7,0,2.3   C43.5,31.2,43.9,31.3,44.3,31.3z M43.9,29.3c0.1-0.1,0.3-0.2,0.4-0.2c0.2,0,0.3,0.1,0.4,0.2c0.1,0.1,0.2,0.3,0.2,0.4   s-0.1,0.3-0.2,0.4c-0.2,0.2-0.6,0.2-0.9,0c-0.1-0.1-0.2-0.3-0.2-0.4S43.8,29.4,43.9,29.3z"/><path d="M57.2,63.9c-2.6,0-4.7,2.1-4.7,4.7s2.1,4.7,4.7,4.7s4.7-2.1,4.7-4.7S59.7,63.9,57.2,63.9z M57.2,71.2   c-1.4,0-2.6-1.2-2.6-2.6c0-1.4,1.2-2.6,2.6-2.6c1.4,0,2.6,1.2,2.6,2.6C59.8,70,58.6,71.2,57.2,71.2z"/><path d="M56.1,67.5c-0.6,0.6-0.6,1.7,0,2.3c0.3,0.3,0.7,0.5,1.2,0.5c0.4,0,0.8-0.2,1.2-0.5h0c0.6-0.6,0.6-1.7,0-2.3   C57.8,66.9,56.7,66.9,56.1,67.5z M57.7,69.1c-0.2,0.2-0.6,0.2-0.9,0c-0.2-0.2-0.2-0.6,0-0.9c0.1-0.1,0.3-0.2,0.4-0.2   c0.2,0,0.3,0.1,0.4,0.2C57.9,68.5,57.9,68.9,57.7,69.1z"/><path d="M71.4,47.4c-2,0-3.7,1.7-3.7,3.7c0,2,1.7,3.7,3.7,3.7c2,0,3.7-1.7,3.7-3.7C75.1,49,73.5,47.4,71.4,47.4z M71.4,52.7   c-0.9,0-1.6-0.7-1.6-1.6c0-0.9,0.7-1.6,1.6-1.6s1.6,0.7,1.6,1.6C73.1,52,72.3,52.7,71.4,52.7z"/><path d="M70.5,50.2c-0.5,0.5-0.5,1.4,0,1.9c0.3,0.3,0.6,0.4,1,0.4c0.3,0,0.7-0.1,1-0.4l0,0c0.5-0.5,0.5-1.4,0-1.9   C71.9,49.7,71,49.7,70.5,50.2z M71.7,51.4c-0.1,0.1-0.3,0.1-0.4,0c-0.1-0.1-0.1-0.3,0-0.4c0.1-0.1,0.1-0.1,0.2-0.1s0.2,0,0.2,0.1   C71.8,51.1,71.8,51.3,71.7,51.4z"/><path d="M64.3,80.2c-2,0-3.7,1.7-3.7,3.7s1.7,3.7,3.7,3.7c2,0,3.7-1.7,3.7-3.7S66.4,80.2,64.3,80.2z M64.3,85.5   c-0.9,0-1.6-0.7-1.6-1.6s0.7-1.6,1.6-1.6c0.9,0,1.6,0.7,1.6,1.6S65.2,85.5,64.3,85.5z"/><path d="M63.4,83c-0.5,0.5-0.5,1.4,0,1.9c0.3,0.3,0.6,0.4,1,0.4c0.3,0,0.7-0.1,1-0.4l0,0c0.5-0.5,0.5-1.4,0-1.9   C64.8,82.5,64,82.5,63.4,83z M64.6,84.2c-0.1,0.1-0.3,0.1-0.4,0c-0.1-0.1-0.1-0.3,0-0.4c0.1-0.1,0.1-0.1,0.2-0.1s0.2,0,0.2,0.1   C64.7,83.8,64.7,84,64.6,84.2z"/><path d="M41.6,74.6c0-1.9-1.5-3.5-3.5-3.5s-3.5,1.5-3.5,3.5s1.5,3.5,3.5,3.5S41.6,76.6,41.6,74.6z M36.8,74.6   c0-0.8,0.6-1.4,1.4-1.4c0.8,0,1.4,0.6,1.4,1.4S39,76,38.2,76C37.4,76,36.8,75.4,36.8,74.6z"/><path d="M39,75.4c0.2-0.2,0.3-0.4,0.3-0.7c0-0.3-0.1-0.5-0.3-0.7c-0.2-0.2-0.4-0.3-0.7-0.3c-0.3,0-0.5,0.1-0.7,0.3   c-0.4,0.4-0.4,1,0,1.4c0.2,0.2,0.4,0.3,0.7,0.3C38.5,75.7,38.8,75.6,39,75.4z M37.9,74.4c0.1-0.1,0.2-0.1,0.3-0.1   c0.1,0,0.3,0.1,0.3,0.1c0.2,0.2,0.2,0.5,0,0.7s-0.5,0.2-0.7,0C37.7,74.9,37.7,74.6,37.9,74.4z"/></g><text x="0" y="115" fill="#000000" font-size="5px" font-weight="bold" font-family="'Helvetica Neue', Helvetica, Arial-Unicode, Arial, Sans-serif">Created by Miroslava</text><text x="0" y="120" fill="#000000" font-size="5px" font-weight="bold" font-family="'Helvetica Neue', Helvetica, Arial-Unicode, Arial, Sans-serif">from the Noun Project</text></svg>