<svg xmlns="http://www.w3.org/2000/svg" xmlns:xlink="http://www.w3.org/1999/xlink" version="1.1" x="0px" y="0px" viewBox="0 0 100 125" style="enable-background:new 0 0 100 100;" xml:space="preserve"><g><circle cx="47.5561295" cy="20.6949997" r="8.3990011"/><path d="M31.3351307,62.5239983c0.1940002,0.031002,0.3880005,0.0460014,0.5780029,0.0460014   c1.7639942,0,3.3159962-1.2799988,3.600996-3.0779991C36.2041321,55.1549988,37.9211311,44.5,38.6851311,40.2830009V91.348999   c0,2.0159988,1.6349983,3.651001,3.651001,3.651001s3.651001-1.6340027,3.651001-3.651001V65.7819977h3.1419983V91.348999   c0,2.0159988,1.6349983,3.651001,3.651001,3.651001s3.651001-1.6340027,3.651001-3.651001V36.8879967   c3.2639999-1.3240013,5.2420006-4.0629997,6.0330009-5.941l8.9220047-18.6310005   c0.8709946-1.8189993,0.1019974-3.9989996-1.7160034-4.8699994c-1.8199997-0.8720002-4-0.1030002-4.8699951,1.7160001   l-9.0620041,18.9400005c-0.0830002,0.1849995-1.0639992,2.2600002-3.348999,2.2600002h-9.6650009   c-3.2710037,0-9.3590012,0-10.8859997,6.8640003c-0.612999,2.7639999-3.2400055,19.2490044-3.5370026,21.1200027   C27.9831333,60.3370018,29.3421345,62.2080002,31.3351307,62.5239983z"/></g></svg>
