<svg xmlns="http://www.w3.org/2000/svg" xmlns:xlink="http://www.w3.org/1999/xlink" version="1.1" x="0px" y="0px" viewBox="0 0 10 12.5" enable-background="new 0 0 10 10" xml:space="preserve"><g><circle cx="4.997" cy="4.997" r="0.515"/><path d="M8.499,6.361c-0.438-0.438-1.078-0.55-1.621-0.338C6.89,6.036,6.899,6.049,6.911,6.061l0.311,0.311   C7.563,6.305,7.93,6.402,8.193,6.666c0.421,0.422,0.421,1.106,0,1.527s-1.106,0.421-1.526,0C6.403,7.93,6.305,7.563,6.371,7.222   l-0.31-0.31C6.05,6.9,6.036,6.89,6.023,6.878C5.812,7.42,5.923,8.062,6.361,8.499c0.589,0.589,1.548,0.589,2.138,0   C9.089,7.909,9.089,6.95,8.499,6.361z"/><path d="M3.128,3.984C3.112,3.967,3.099,3.949,3.082,3.933L2.785,3.636C2.444,3.703,2.077,3.604,1.813,3.341   c-0.421-0.421-0.421-1.106,0-1.527c0.422-0.421,1.106-0.421,1.527,0c0.264,0.264,0.361,0.631,0.295,0.972l0.297,0.297   c0.017,0.016,0.034,0.031,0.051,0.046c0.212-0.543,0.1-1.184-0.337-1.621c-0.59-0.589-1.549-0.589-2.139,0   c-0.589,0.59-0.589,1.549,0,2.138C1.945,4.083,2.586,4.195,3.128,3.984z"/><path d="M6.062,3.083l0.303-0.303C6.298,2.438,6.396,2.07,6.66,1.807c0.42-0.421,1.106-0.421,1.526,0   c0.422,0.421,0.422,1.106,0,1.527C7.923,3.598,7.556,3.696,7.215,3.629L6.911,3.933c-0.014,0.014-0.026,0.029-0.04,0.044   c0.543,0.211,1.184,0.1,1.621-0.338c0.589-0.589,0.589-1.548,0-2.138s-1.548-0.589-2.138,0C5.917,1.938,5.805,2.58,6.017,3.123   C6.031,3.109,6.047,3.097,6.062,3.083z"/><path d="M6.26,6.713l0.215,0.215l0.948,0.949c0.067,0.066,0.161,0.1,0.258,0.09l0.046-0.005l0.038,0.022   c0.002,0,0.002,0,0.002,0.001l0.219-0.218C7.984,7.767,7.984,7.766,7.983,7.766L7.962,7.727l0.004-0.045   c0.01-0.098-0.022-0.191-0.09-0.259L6.927,6.475L6.713,6.26C6.679,6.227,6.648,6.191,6.618,6.155   C6.052,5.492,6.05,4.511,6.612,3.845C6.645,3.808,6.677,3.77,6.713,3.734l0.208-0.208l0.955-0.955   c0.067-0.067,0.1-0.162,0.091-0.259L7.962,2.268l0.021-0.039c0.001-0.001,0.001-0.001,0.002-0.002L7.767,2.009   c0,0-0.001,0.001-0.002,0.001L7.727,2.032L7.682,2.027C7.585,2.018,7.49,2.051,7.423,2.118L6.468,3.073L6.26,3.281   C6.224,3.317,6.187,3.35,6.148,3.382C5.487,3.94,4.515,3.943,3.853,3.388c-0.041-0.034-0.08-0.068-0.118-0.106L3.532,3.08   L2.571,2.118C2.504,2.051,2.409,2.018,2.313,2.027L2.268,2.032L2.229,2.01c-0.001,0-0.001,0-0.002-0.001L2.009,2.227   c0,0.001,0.001,0.001,0.001,0.002l0.022,0.039L2.027,2.313C2.018,2.41,2.05,2.504,2.118,2.571l0.961,0.961l0.202,0.202   c0.038,0.038,0.072,0.078,0.106,0.118C3.942,4.515,3.94,5.488,3.381,6.148C3.35,6.187,3.316,6.225,3.281,6.26L3.073,6.468   L2.118,7.423C2.05,7.49,2.018,7.584,2.027,7.682l0.005,0.045L2.01,7.766c0,0-0.001,0.001-0.001,0.002l0.218,0.217   c0.001,0,0.001,0,0.002,0l0.039-0.022l0.045,0.005c0.098,0.01,0.191-0.023,0.259-0.09l0.955-0.956l0.208-0.208   c0.036-0.035,0.073-0.068,0.111-0.1c0.665-0.563,1.646-0.562,2.31,0.006C6.191,6.648,6.227,6.68,6.26,6.713z M4.997,5.793   c-0.438,0-0.795-0.357-0.795-0.796s0.356-0.795,0.795-0.795s0.796,0.357,0.796,0.795S5.436,5.793,4.997,5.793z"/><path d="M3.933,6.911L3.63,7.215c0.066,0.342-0.032,0.709-0.297,0.972c-0.42,0.421-1.105,0.421-1.526,0s-0.421-1.105,0-1.526   C2.07,6.396,2.438,6.298,2.779,6.364l0.303-0.304c0.015-0.014,0.026-0.029,0.04-0.044c-0.542-0.212-1.184-0.1-1.621,0.338   c-0.59,0.589-0.59,1.548,0,2.138s1.549,0.59,2.139,0c0.438-0.438,0.549-1.078,0.338-1.621C3.962,6.885,3.946,6.897,3.933,6.911z"/></g><text x="0" y="25" fill="#000000" font-size="5px" font-weight="bold" font-family="'Helvetica Neue', Helvetica, Arial-Unicode, Arial, Sans-serif">Created by verry obito</text><text x="0" y="30" fill="#000000" font-size="5px" font-weight="bold" font-family="'Helvetica Neue', Helvetica, Arial-Unicode, Arial, Sans-serif">from the Noun Project</text></svg>